<svg width="679" height="769" viewBox="0 0 679 769" fill="none" xmlns="http://www.w3.org/2000/svg">
<path d="M65.7012 283.829H0.417969L12.3809 271.354V13.4678L0.417969 0.992188H65.7012L53.7383 13.4678V271.354L65.7012 283.829Z" fill="#EDC700"/>
<path d="M177.298 285.196C158.043 285.196 140.441 280.696 124.49 271.695C108.654 262.695 96.0072 250.675 86.5508 235.636C77.2083 220.483 72.5371 203.735 72.5371 185.392C72.5371 167.049 77.2083 150.357 86.5508 135.318C96.0072 120.165 108.654 108.146 124.49 99.2588C140.441 90.2581 158.043 85.7578 177.298 85.7578C196.552 85.7578 214.098 90.2581 229.935 99.2588C245.771 108.146 258.418 120.165 267.874 135.318C277.33 150.357 282.059 167.049 282.059 185.392C282.059 203.735 277.33 220.483 267.874 235.636C258.418 250.675 245.771 262.695 229.935 271.695C214.098 280.696 196.552 285.196 177.298 285.196ZM177.298 276.31C188.007 276.31 197.749 272.208 206.521 264.005C215.294 255.802 222.301 244.864 227.542 231.192C232.783 217.407 235.403 202.14 235.403 185.392C235.403 168.757 232.783 153.548 227.542 139.762C222.301 125.976 215.294 115.038 206.521 106.949C197.749 98.7461 188.007 94.6445 177.298 94.6445C166.588 94.6445 156.847 98.7461 148.074 106.949C139.301 115.038 132.295 125.976 127.054 139.762C121.813 153.548 119.192 168.757 119.192 185.392C119.192 202.14 121.813 217.407 127.054 231.192C132.295 244.864 139.301 255.802 148.074 264.005C156.847 272.208 166.588 276.31 177.298 276.31Z" fill="#EDC700"/>
<path d="M321.878 286.051C315.612 286.051 310.542 283.829 306.668 279.386C302.794 274.942 300.857 266.967 300.857 255.46V101.31L288.895 88.834H354.178L342.215 101.31V246.231C342.215 252.156 343.525 256.257 346.146 258.536C348.766 260.815 352.184 261.954 356.399 261.954C360.159 261.954 364.375 261.327 369.046 260.074C373.717 258.821 378.616 257.397 383.743 255.802C388.984 254.207 394.225 252.783 399.466 251.529C404.707 250.162 409.606 249.479 414.163 249.479C418.72 249.479 422.708 250.504 426.126 252.555V101.31L414.163 88.834H479.446L467.483 101.31V271.354L479.446 283.829H414.163L425.955 271.354C424.018 261.555 418.549 256.656 409.549 256.656C403.966 256.656 397.529 258.137 390.237 261.1C382.946 263.948 375.255 267.309 367.166 271.183C359.077 274.942 351.045 278.36 343.069 281.437C335.208 284.513 328.144 286.051 321.878 286.051Z" fill="#EDC700"/>
<path d="M550.882 368.595H485.599L497.562 356.119V98.2334L485.599 85.7578H565.921C581.985 85.7578 596.854 86.4414 610.525 87.8086C624.311 89.0618 636.274 92.252 646.414 97.3789C656.668 102.392 664.643 110.253 670.34 120.963C676.036 131.673 678.885 146.37 678.885 165.055C678.885 177.929 676.777 188.924 672.562 198.038C668.346 207.153 662.763 214.957 655.813 221.451C648.864 227.831 641.059 233.471 632.4 238.37C623.742 243.269 614.855 247.826 605.74 252.042C597.195 256.144 588.935 260.416 580.96 264.859C573.099 269.189 565.978 274.202 559.598 279.898C553.331 285.481 548.318 292.089 544.559 299.723C540.799 307.47 538.919 316.756 538.919 327.579V356.119L550.882 368.595ZM538.919 296.817C538.919 290.551 540.742 284.798 544.388 279.557C548.034 274.316 552.819 269.246 558.743 264.347C564.668 259.448 571.105 254.549 578.055 249.649C585.005 244.75 591.84 239.623 598.562 234.269C605.398 228.8 611.608 222.818 617.19 216.324C622.887 209.716 627.444 202.424 630.862 194.449C634.28 186.36 635.989 177.245 635.989 167.105C635.989 141.015 626.875 122.501 608.646 111.563C592.809 102.221 569.567 97.3789 538.919 97.0371V296.817Z" fill="#EDC700"/>
<path d="M65.7012 764.829H0.417969L12.3809 752.354V582.31L0.417969 569.834H65.7012L53.7383 582.31C53.7383 587.892 54.5358 591.823 56.1309 594.102C57.8398 596.38 60.1185 597.52 62.9668 597.52C66.1569 597.52 70.0306 596.437 74.5879 594.272C79.1452 591.994 84.0443 589.316 89.2852 586.24C95.6654 582.48 102.216 579.062 108.938 575.986C115.66 572.796 121.984 571.201 127.908 571.201C136.567 571.201 143.688 572.853 149.271 576.157C154.853 579.347 159.297 583.449 162.601 588.462C165.905 593.475 168.354 598.716 169.949 604.185C171.544 609.539 172.513 614.552 172.854 619.224C173.31 623.781 173.538 627.199 173.538 629.478V631.699H117.654L150.296 597.861C146.308 587.266 139.017 581.968 128.421 581.968C121.813 581.968 115.376 583.449 109.109 586.411C102.957 589.373 96.9186 592.677 90.9941 596.323C85.1836 599.855 79.6009 602.817 74.2461 605.21C70.2585 606.691 66.6126 607.432 63.3086 607.432C58.8652 607.432 55.6751 606.178 53.7383 603.672V752.354L65.7012 764.829Z" fill="#EDC700"/>
<path d="M237.454 768.931C227.314 768.931 217.915 766.937 209.256 762.949C200.597 758.848 193.647 753.265 188.406 746.201C183.165 739.137 180.545 731.162 180.545 722.275C181.342 709.971 184.874 700.514 191.141 693.906C196.723 688.096 203.559 683.538 211.648 680.234C219.738 676.93 228.226 674.025 237.112 671.519C243.948 669.582 250.499 667.474 256.766 665.195C263.146 662.917 268.899 660.068 274.026 656.65C285.078 649.131 290.604 638.136 290.604 623.667V614.438C290.604 606.349 288.724 599.855 284.964 594.956C281.318 590.057 276.59 586.525 270.779 584.36C265.083 582.082 259.101 580.942 252.835 580.942C244.86 580.942 237.967 582.765 232.156 586.411C226.346 589.943 220.991 594.842 216.092 601.108L236.6 625.718H190.115C190.115 617.401 193.191 608.856 199.344 600.083C205.61 591.196 214.041 583.677 224.637 577.524C235.346 571.372 247.309 568.296 260.525 568.296C273.742 568.296 285.761 570.29 296.585 574.277C307.409 578.151 316.01 583.449 322.391 590.171C328.771 596.893 331.961 604.526 331.961 613.071V752.354L343.924 764.829H278.641L290.604 752.354V746.03C282.4 754.006 273.685 759.816 264.456 763.462C255.341 767.108 246.341 768.931 237.454 768.931ZM260.525 752.183C266.45 752.183 272.09 751.043 277.444 748.765C282.913 746.486 287.299 743.125 290.604 738.682V643.32C290.604 647.878 289.179 652.036 286.331 655.796C283.483 659.556 279.78 663.088 275.223 666.392C270.665 669.696 265.709 673 260.354 676.304C254.316 679.95 248.506 683.88 242.923 688.096C237.454 692.197 232.897 696.812 229.251 701.938C225.605 707.065 223.782 713.047 223.782 719.883C223.782 727.174 225.548 733.213 229.08 737.998C232.726 742.669 237.34 746.201 242.923 748.594C248.619 750.986 254.487 752.183 260.525 752.183Z" fill="#EDC700"/>
<path d="M547.293 764.829H481.839L489.871 752.354L470.218 692.881L444.925 751.157L450.394 761.753L454.495 764.829H389.041L397.073 752.354L341.189 582.31L325.125 569.834H390.408L382.547 582.31L433.475 737.485L462.869 670.151L433.987 582.31L417.923 569.834H483.206L475.345 582.31L486.453 616.147L500.638 583.506L493.46 569.834H537.039L517.898 583.506L493.802 638.706L526.272 737.485L593.436 583.506L586.258 569.834H629.837L610.696 583.506L537.723 751.157L543.191 761.753L547.293 764.829Z" fill="#EDC700"/>
</svg>
